HIERARCHY
ROOT Root
{
	OFFSET 0.00 0.00 0.00
	CHANNELS 6 Xposition Yposition Zposition Xrotation Yrotation Zrotation
	JOINT L_Femur
	{
		OFFSET 2.78527 0.00000 0.00000
		CHANNELS 3 Xrotation Yrotation Zrotation
		JOINT L_Tibia
		{
			OFFSET 0.00000 -16.41095 0.00000
			CHANNELS 3 Xrotation Yrotation Zrotation
			JOINT L_Foot
			{
				OFFSET 0.00000 -14.21163 0.00000
				CHANNELS 3 Xrotation Yrotation Zrotation
				JOINT L_Toe
				{
					OFFSET 0.00000 -1.60827 6.00215
					CHANNELS 3 Xrotation Yrotation Zrotation
					End Site
					{
						OFFSET 0.00000 0.00000 2.95275
					}
				}
			}
		}
	}
	JOINT R_Femur
	{
		OFFSET -2.78527 0.00000 0.00000
		CHANNELS 3 Xrotation Yrotation Zrotation
		JOINT R_Tibia
		{
			OFFSET 0.00000 -16.41095 0.00000
			CHANNELS 3 Xrotation Yrotation Zrotation
			JOINT R_Foot
			{
				OFFSET 0.00000 -14.21163 0.00000
				CHANNELS 3 Xrotation Yrotation Zrotation
				JOINT R_Toe
				{
					OFFSET 0.00000 -1.60827 6.00215
					CHANNELS 3 Xrotation Yrotation Zrotation
					End Site
					{
						OFFSET 0.00000 0.00000 2.95275
					}
				}
			}
		}
	}
	JOINT LowerBack
	{
		OFFSET 0.00000 0.03937 0.00000
		CHANNELS 3 Xrotation Yrotation Zrotation
		JOINT Thorax
		{
			OFFSET 0.00000 7.01329 0.00000
			CHANNELS 3 Xrotation Yrotation Zrotation
			JOINT Neck
			{
				OFFSET 0.00000 7.25825 0.00000
				CHANNELS 3 Xrotation Yrotation Zrotation
				JOINT Head
				{
					OFFSET 0.00000 5.63334 0.00000
					CHANNELS 3 Xrotation Yrotation Zrotation
					End Site
					{
						OFFSET 0.00000 4.52755 0.00000
					}
				}
			}
			JOINT L_Collar
			{
				OFFSET 0.00000 7.25825 0.00000
				CHANNELS 3 Xrotation Yrotation Zrotation
				JOINT L_Humerus
				{
					OFFSET 6.91821 -0.00003 0.00000
					CHANNELS 3 Xrotation Yrotation Zrotation
					JOINT L_Elbow
					{
						OFFSET 10.34006 -0.00004 0.00000
						CHANNELS 3 Xrotation Yrotation Zrotation
						JOINT L_Wrist
						{
							OFFSET 7.25554 -0.00003 0.00000
							CHANNELS 3 Xrotation Yrotation Zrotation
							JOINT L_Thumb
							{
								OFFSET 0.00000 0.00000 0.00000
								CHANNELS 3 Xrotation Yrotation Zrotation
								End Site
								{
									OFFSET 0.00000 0.00000 3.93700
								}
							}
							JOINT L_Wrist_End
							{
								OFFSET 3.93700 -0.00001 0.00000
								CHANNELS 3 Xrotation Yrotation Zrotation
							}
						}
					}
				}
			}
			JOINT R_Collar
			{
				OFFSET 0.00000 7.25825 0.00000
				CHANNELS 3 Xrotation Yrotation Zrotation
				JOINT R_Humerus
				{
					OFFSET -6.91821 -0.00003 0.00000
					CHANNELS 3 Xrotation Yrotation Zrotation
					JOINT R_Elbow
					{
						OFFSET -10.34006 -0.00004 0.00000
						CHANNELS 3 Xrotation Yrotation Zrotation
						JOINT R_Wrist
						{
							OFFSET -7.25554 -0.00003 0.00000
							CHANNELS 3 Xrotation Yrotation Zrotation
							JOINT R_Thumb
							{
								OFFSET 0.00000 0.00000 0.00000
								CHANNELS 3 Xrotation Yrotation Zrotation
								End Site
								{
									OFFSET 0.00000 0.00000 3.93700
								}
							}
							JOINT R_Wrist_End
							{
								OFFSET -5.39369 -0.00002 0.00000
								CHANNELS 3 Xrotation Yrotation Zrotation
							}
						}
					}
				}
			}
		}
	}
}
MOTION
Frames: 6
Frame Time: 0.033332
 -40.8920 32.7578 -43.2489 6.8975 -57.8153 3.3038 2.2425 34.9968 -3.7974 6.5222 -0.0000 0.0000 -13.4887 -9.9307 6.4946 -8.9535 0.0000 0.0000 -27.6083 12.2713 1.6549 39.5431 -0.0000 0.0000 -19.7710 4.3598 -5.8385 -9.3399 0.0000 -0.0000 -3.8301 -2.8224 -10.3904 4.6761 -2.2240 12.1709 -2.1428 -46.3483 2.4771 -11.5017 61.1543 18.3095 -10.1847 10.7782 20.4988 -83.0713 -5.5941 -84.2793 -0.0000 -7.5649 -0.0000 -51.6770 -2.5881 -5.9792 -0.0000 0.0000 -0.0000 -0.0000 0.0000 -0.0000 9.5017 -0.0905 -14.4974 9.1222 21.6527 81.7358 -0.0000 10.9185 0.0000 -25.6086 8.5120 -3.1898 -0.0000 0.0000 -0.0000 -0.0000 0.0000 -0.0000
 -41.3770 32.7046 -42.9002 6.9809 -56.1517 3.1769 3.3001 33.9092 -3.6960 5.9407 0.0000 0.0000 -14.0882 -10.4043 5.6083 -8.9464 -0.0000 -0.0000 -27.6087 9.9830 2.0104 31.1980 -0.0000 0.0000 -18.8810 5.1281 -4.3553 -9.5000 0.0000 0.0000 -3.7339 -2.4025 -10.5334 4.7308 -1.7520 12.3718 -2.6212 -47.2429 1.9921 -12.6152 60.8533 19.7281 -8.9046 10.6497 18.7208 -80.6592 -4.2547 -86.6577 -0.0000 -6.7303 -0.0000 -51.7253 -2.7876 -5.8483 -0.0000 0.0000 -0.0000 -0.0000 0.0000 -0.0000 9.3207 0.9190 -13.6386 5.5079 21.9808 82.2823 -0.0000 10.9810 0.0000 -23.9365 8.1703 -3.9944 -0.0000 -0.0000 0.0000 -0.0000 -0.0000 0.0000
 -41.8765 32.6260 -42.4804 6.6568 -53.6391 2.8443 4.6918 32.0591 -3.7136 5.2790 -0.0000 0.0000 -14.6401 -11.0856 4.8848 -9.0007 0.0000 0.0000 -26.7154 6.0464 1.7272 23.2085 -0.0000 0.0000 -18.0119 7.0552 -1.5447 -9.5775 0.0000 0.0000 -3.5674 -2.4179 -10.3763 4.9235 -1.7213 12.3908 -2.9674 -48.0178 1.3138 -14.3763 60.6703 21.1421 -7.4641 10.8130 16.3177 -77.0598 -3.5180 -89.4185 -0.0000 -5.6761 -0.0000 -52.4249 -2.9318 -5.8272 -0.0000 0.0000 -0.0000 -0.0000 0.0000 -0.0000 8.9314 1.7184 -13.0096 0.2789 23.6423 83.2047 -0.0000 10.1602 0.0000 -23.7663 8.3961 -4.3189 -0.0000 0.0000 -0.0000 -0.0000 0.0000 -0.0000
 -42.4357 32.5260 -42.0405 6.4582 -51.5002 2.6167 5.7670 31.3762 -3.3692 5.3921 -0.0000 0.0000 -15.7328 -12.4366 3.8887 -9.2525 -0.0000 0.0000 -25.7159 3.7674 1.8852 17.0758 -0.0000 0.0000 -16.3239 8.1732 -0.2552 -9.5821 0.0000 0.0000 -3.6063 -2.1579 -10.3818 5.0114 -1.4437 12.5236 -3.2213 -48.7335 0.8297 -14.9972 60.3984 21.6928 -5.1873 11.1226 13.5978 -72.6660 -3.7080 -92.2435 -0.0000 -5.0453 -0.0000 -52.8738 -3.2215 -5.8127 -0.0000 0.0000 -0.0000 -0.0000 0.0000 -0.0000 8.7623 2.5202 -11.8500 -6.3363 23.4662 83.8547 -0.0000 9.6594 0.0000 -22.3804 8.2468 -4.8109 -0.0000 -0.0000 0.0000 -0.0000 -0.0000 0.0000
 -42.9271 32.4062 -41.6640 9.5974 -48.6310 4.6545 3.0582 28.9882 -2.1395 7.5206 -0.0000 0.0000 -17.7186 -12.3296 3.5997 -8.3277 -0.0000 -0.0000 -27.5402 3.5110 2.2645 14.9487 -0.0000 0.0000 -16.4032 7.7028 -2.4433 -10.1197 0.0000 0.0000 -4.8489 -2.1443 -10.2019 4.1607 -1.7039 12.9536 -3.3496 -49.7155 0.3248 -15.7509 60.1935 22.1156 -3.6909 10.9565 10.5775 -65.9985 -4.8397 -94.1654 -0.0000 -4.7178 -0.0000 -52.3007 -2.8594 -5.6481 -0.0000 0.0000 -0.0000 -0.0000 0.0000 -0.0000 8.5930 3.4458 -10.6968 -14.1515 23.1186 84.1985 -0.0000 9.3139 0.0000 -21.9958 8.2490 -5.2086 -0.0000 0.0000 -0.0000 -0.0000 0.0000 -0.0000
 -43.5767 32.2678 -41.1587 9.1616 -46.6841 4.0093 2.7132 27.6320 -0.7973 10.5546 -0.0000 0.0000 -19.8696 -12.5734 3.8214 -8.4592 -0.0000 -0.0000 -26.9006 5.8930 2.8236 15.7313 -0.0000 0.0000 -14.6504 7.9104 -1.4271 -10.0237 -0.0000 -0.0000 -5.2665 -1.7602 -9.9349 4.7360 -1.3987 13.1961 -3.6761 -50.3470 0.1784 -14.9485 59.9924 21.0634 -1.9060 10.6208 7.1811 -59.1247 -8.6493 -94.4843 -0.0000 -3.3466 -0.0000 -51.1548 -3.0770 -5.1266 -0.0000 0.0000 -0.0000 -0.0000 0.0000 -0.0000 8.5141 4.2235 -10.0655 -23.3156 23.1197 84.7986 -0.0000 9.2045 0.0000 -22.6395 8.6829 -5.7590 -0.0000 -0.0000 0.0000 -0.0000 -0.0000 0.0000
